Coordinates
version=1
nRows=9
nColumns=24
inDegrees=yes

Units are S.I. units (second, meters, Newtons, ...)
Angles are in degrees.

endheader
time	pelvis_tilt	pelvis_list	pelvis_rotation	pelvis_tx	pelvis_ty	pelvis_tz	hip_flexion_r	hip_adduction_r	hip_rotation_r	knee_angle_r	ankle_angle_r	subtalar_angle_r	mtp_angle_r	hip_flexion_l	hip_adduction_l	hip_rotation_l	knee_angle_l	ankle_angle_l	subtalar_angle_l	mtp_angle_l	lumbar_extension	lumbar_bending	lumbar_rotation
      1.14150000	      2.46402680	      0.29510943	     -0.73739497	     -0.06524485	      0.98197489	      0.34102935	    -23.24835739	      1.95894551	     -2.51747620	     -0.63110656	     16.52729990	     -0.23129014	      1.00831858	     17.92466501	      1.41891634	     -1.06813479	      6.36884721	     -4.58329702	     -4.97184227	      2.24104847	    -16.40990078	      4.99832414	      7.47579360
      1.14566667	      2.47871052	      0.47260090	     -0.73146815	     -0.05930992	      0.98130737	      0.34051206	    -23.34103213	      1.70791685	     -2.81120771	     -1.24433678	     16.77971646	      0.23299173	      1.14586791	     17.90395333	      1.69691732	     -0.82391007	      6.19517788	     -4.83712631	     -5.17824644	      2.33440638	    -16.38941572	      4.77011959	      7.50578158
      1.14983333	      2.54469967	      0.68794005	     -0.72657121	     -0.05333697	      0.98075565	      0.33998874	    -23.48055685	      1.41509457	     -3.12807958	     -1.87510417	     17.00846993	      0.70449528	      1.30027708	     17.82828183	      2.01384462	     -0.57080015	      5.95104345	     -5.16072514	     -5.45478930	      2.43870486	    -16.43161065	      4.49972743	      7.51956732
      1.15400000	      2.57794580	      0.90572201	     -0.71886287	     -0.04734467	      0.98020561	      0.33945117	    -23.55846714	      1.11763699	     -3.43643935	     -2.56392737	     17.22677859	      1.15153191	      1.47720569	     17.80136917	      2.33194488	     -0.29638369	      5.62010024	     -5.54003059	     -5.81114292	      2.55722612	    -16.41674039	      4.21677397	      7.52983261
      1.15816667	      2.61584912	      1.14553432	     -0.70948044	     -0.04132775	      0.97970708	      0.33889613	    -23.62653626	      0.79525817	     -3.73550664	     -3.28461523	     17.41295063	      1.57270617	      1.67516890	     17.77713515	      2.67304501	     -0.01434570	      5.21907641	     -5.97481839	     -6.22895666	      2.68759805	    -16.41619563	      3.91675465	      7.53068177
      1.16233333	      2.63383713	      1.40555959	     -0.70266129	     -0.03527958	      0.97922886	      0.33833578	    -23.65945779	      0.44939001	     -4.01808236	     -4.03559529	     17.57570573	      1.96254720	      1.88371585	     17.78486328	      3.03355939	      0.26638584	      4.74679237	     -6.47028915	     -6.70857960	      2.81992060	    -16.39445921	      3.59875734	      7.52139296
      1.16650000	      2.65613520	      1.66417743	     -0.68819741	     -0.02923039	      0.97879747	      0.33776309	    -23.67237488	      0.10557129	     -4.30404571	     -4.83636980	     17.70035916	      2.32181137	      2.11887478	     17.80238718	      3.39377793	      0.55459623	      4.20596210	     -6.99725090	     -7.25401001	      2.96153928	    -16.35721844	      3.26451111	      7.50567881
      1.17066667	      2.66274838	      1.93545525	     -0.67272598	     -0.02315815	      0.97838773	      0.33717413	    -23.65470185	     -0.25275929	     -4.56577401	     -5.66651726	     17.79040370	      2.64090849	      2.37778862	     17.84522596	      3.76789725	      0.83804822	      3.61241846	     -7.56138093	     -7.85021512	      3.10580086	    -16.31404401	      2.92518576	      7.48269068
      1.17483333	      2.66182191	      2.21447814	     -0.65450095	     -0.01708165	      0.97801610	      0.33656597	    -23.60831845	     -0.62035255	     -4.81099444	     -6.53683853	     17.83276000	      2.91998687	      2.66566871	     17.91346492	      4.15129813	      1.12055513	      2.95149778	     -8.14652993	     -8.48945746	      3.25117214	    -16.26280526	      2.58112382	      7.45144179
